<svg id="vidrelo-logo-colorida" xmlns="http://www.w3.org/2000/svg" width="302.003" height="57.083" viewBox="0 0 302.003 57.083">
  <path id="Caminho_150" data-name="Caminho 150" d="M24.552.848h71.7c13.5,0,24.552,10.8,24.552,24v9.092c0,13.2-11.047,24-24.552,24h-71.7c-13.5,0-24.552-10.8-24.552-24V24.843c0-13.2,11.048-24,24.552-24Zm-.44,14.659H96.69a9.222,9.222,0,0,1,9.3,9.087v9.589a9.222,9.222,0,0,1-9.3,9.087H24.111a9.222,9.222,0,0,1-9.3-9.087V24.594A9.222,9.222,0,0,1,24.111,15.507Z" transform="translate(0 -0.848)" fill="#50cfe8" fill-rule="evenodd"/>
  <path id="Caminho_151" data-name="Caminho 151" d="M60.753.848c13.331,0,24.238,10.66,24.238,23.689v9.7c0,13.029-10.907,23.689-24.238,23.689S36.516,47.27,36.516,34.241v-9.7C36.516,11.508,47.423.848,60.753.848Zm0,14.659a9.413,9.413,0,0,1,9.491,9.276v9.212a9.493,9.493,0,0,1-18.982,0V24.783A9.413,9.413,0,0,1,60.753,15.507Z" transform="translate(-0.359 -0.848)" fill="#50cfe8" fill-rule="evenodd"/>
  <path id="Caminho_152" data-name="Caminho 152" d="M59.148,57.882c-12.59-.815-22.633-11.134-22.633-23.636v-9.7c0-12.5,10.043-22.821,22.633-23.635v14.74a9.375,9.375,0,0,0-7.886,9.142V34a9.375,9.375,0,0,0,7.886,9.142Z" transform="translate(-0.359 -0.848)" fill="#72ff2b" fill-rule="evenodd"/>
  <path id="Caminho_153" data-name="Caminho 153" d="M61,.849V15.508H97.29a9.222,9.222,0,0,1,9.3,9.087v9.589a9.222,9.222,0,0,1-9.3,9.087H61V57.931H96.849c13.5,0,24.552-10.8,24.552-24V24.843c0-13.2-11.047-24-24.552-24H61Z" transform="translate(-0.599 -0.848)" fill="#72ff2b" fill-rule="evenodd"/>
  <path id="Caminho_154" data-name="Caminho 154" d="M60.779.848a24.332,24.332,0,0,1,22.4,14.659H38.383A24.332,24.332,0,0,1,60.78.848Zm22.4,42.424a24.438,24.438,0,0,1-44.792,0H83.175Z" transform="translate(-0.377 -0.848)" fill="#291868" fill-rule="evenodd"/>
  <path id="Caminho_155" data-name="Caminho 155" d="M177.08,24.256v22.33l3.163.78v3.458H167.4l-.523-3.576,3.243-.772V27.309H167.4l-.523-3.576,8.08-1.8,2.12,2.32Zm28.255-13.808V44.982c.48,1.215,1.218,1.791,2.483,1.066q.582,1.3,1.166,2.6c-2.608,3.054-6.758,3.807-9.761,0-4.8,4.09-10.183,2.8-12.946,0-3.489-3.531-4.414-7.919-4.42-11.878a16.221,16.221,0,0,1,4.42-11.432,10.328,10.328,0,0,1,12.1-2.294V13h-2.721l-.522-3.576,8.08-1.8,2.12,2.32v.5ZM194.8,27.328c-3.263,0-5.7,3.389-5.7,9.4s1.772,9.017,5.034,9.017a6.09,6.09,0,0,0,4.254-2.415V28.672A5.661,5.661,0,0,0,194.8,27.328Zm-21.629-19.6a4.346,4.346,0,1,1-4.362,4.346A4.353,4.353,0,0,1,173.166,7.733Zm-9.831,14.641,1.165,1.883-.151.065-10.276,26.5h-7.85L139.17,26.65h0l-3.382.37-.232-4.244,9.525-.249.5,1.729.012.042,5.7,19.544,6.476-16.7h-2.427l-.563-4.264,8.551-.5Zm65.714,28.451H212.139l-.522-3.576,3.243-.772V27.309h-2.721l-.522-3.576,7.809-1.314,2.063,3.112,0,.162.056-.1c1.787-3.256,5.225-3.6,7.464-3.347a7.869,7.869,0,0,1,5.947,4.832l-7.005,3.865-1.664-2.681c-.786-1.266-4.474,1.465-4.474,6.847V45.449l7.23,1.729v3.646Zm42.866-40.376V46.587l3.162.78v3.458h-12.84l-.522-3.576,3.242-.772V13h-2.72l-.522-3.576,8.08-1.8,2.12,2.32v.5ZM258.53,47.489l-1.108-4.775c-4.474,5.255-13.737,4.13-14.284-3.376,2.87-.077,7.6.21,11.225-1.865,7.626-4.36,5.5-14.662-4.521-15.266a12.566,12.566,0,0,0-7.93,1.995,15.508,15.508,0,0,0-6.133,12.853,13.8,13.8,0,0,0,7,12.277c5.467,3.166,12.466,1.833,15.75-1.843ZM243.067,34.453c7.723,1.059,10.3-3.528,8.222-5.91S243.8,28.33,243.067,34.453ZM290.391,51.11c-7.148,0-12.944-6.475-12.944-14.462s5.795-14.462,12.944-14.462,12.944,6.475,12.944,14.462S297.54,51.11,290.391,51.11Zm-5.865-14.462c0-3.619,1.08-9.04,5.865-9.04s5.865,5.421,5.865,9.04-1.08,9.04-5.865,9.04S284.526,40.268,284.526,36.649Z" transform="translate(-1.332 -0.914)" fill="#291868" fill-rule="evenodd"/>
</svg>
