<svg xmlns="http://www.w3.org/2000/svg" width="1556.509" height="827.018" viewBox="0 0 1556.509 827.018">
  <g id="secao1-1" transform="translate(9275.009 3500.009)">
    <rect id="Retângulo_99" data-name="Retângulo 99" width="47" height="108" transform="translate(-7788.501 -3407.009)" fill="#fff"/>
    <rect id="Retângulo_99-2" data-name="Retângulo 99" width="93" height="643" transform="translate(-7811.5 -3500.009)" fill="#05c3de" opacity="0.6"/>
    <rect id="Retângulo_100" data-name="Retângulo 100" width="91" height="1253" transform="translate(-9115.5 -2685.009) rotate(-90)" fill="#4bff41" opacity="0.6"/>
    <path id="Caminho_313" data-name="Caminho 313" d="M1487,108V618h-.059a34.45,34.45,0,0,1-34.45,34.45V699.51A81.509,81.509,0,0,0,1534,618V108Z" transform="translate(-9275.5 -3407.01)" fill="#4bff41"/>
    <path id="Caminho_318" data-name="Caminho 318" d="M1452.491,652.51H81v.025A81.5,81.5,0,0,0,.491,734.019H47.55A34.45,34.45,0,0,1,82,699.569v-.059H1452.491Z" transform="translate(-9275.5 -3407.01)" fill="#05c3de"/>
  </g>
</svg>
