<svg xmlns="http://www.w3.org/2000/svg" width="137.651" height="1091.51" viewBox="0 0 137.651 1091.51">
  <g id="secao-3" transform="translate(-2096.5 -2459.31)">
    <path id="Caminho_321" data-name="Caminho 321" d="M47.059,2543.306c0-18.9,14.556-33.992,33.582-33.992l.868-47c-45.016,0-81.509,36.26-81.509,80.99v929.53A80.683,80.683,0,0,0,23.873,3530.1a81.83,81.83,0,0,0,57.636,23.721v-46.759a34.562,34.562,0,0,1-24.36-10.026,34.116,34.116,0,0,1-10.09-24.205H47v-929.53Z" transform="translate(2096.5 -3.006)" fill="#05c3de"/>
    <path id="Caminho_325" data-name="Caminho 325" d="M0,.18,30.143,0V47H0Z" transform="translate(2177.01 3503.82)" fill="#05c3de"/>
    <line id="Linha_9" data-name="Linha 9" x1="7.193" transform="translate(2203.458 3527.32)" fill="none" stroke="#05c3de" stroke-linecap="round" stroke-width="47"/>
    <rect id="Retângulo_108" data-name="Retângulo 108" width="29.143" height="47" transform="translate(2177.01 2459.31)" fill="#05c3de"/>
    <line id="Linha_15" data-name="Linha 15" x1="7.193" transform="translate(2202.458 2482.811)" fill="none" stroke="#05c3de" stroke-linecap="round" stroke-width="47"/>
  </g>
</svg>
