<svg xmlns="http://www.w3.org/2000/svg" width="360.509" height="629.176" viewBox="0 0 360.509 629.176">
  <g id="secao-4" transform="translate(-3269.991 -3503.82)">
    <path id="Caminho_322" data-name="Caminho 322" d="M1484.319,4156.676a34.451,34.451,0,0,1-31.828,21.266V4178h-279v47h279v-.009a81.484,81.484,0,0,0,81.509-81.5h-47.059a34.455,34.455,0,0,1-2.622,13.184" transform="translate(2096.5 -92.005)" fill="#211551"/>
    <path id="Caminho_323" data-name="Caminho 323" d="M1452.491,3513.825V3561.1a34.529,34.529,0,0,1,34.45,34.607H1487l-.084,466.393h47l.084-466.393c0-45.221-36.493-81.881-81.509-81.881" transform="translate(2096.5 -10.005)" fill="#211551"/>
    <rect id="Retângulo_109" data-name="Retângulo 109" width="29.143" height="47" transform="translate(3520.848 3503.82)" fill="#211551"/>
    <line id="Linha_16" data-name="Linha 16" x2="7.193" transform="translate(3517.35 3527.32)" fill="none" stroke="#211551" stroke-linecap="round" stroke-width="47"/>
  </g>
</svg>
