<svg xmlns="http://www.w3.org/2000/svg" width="137.651" height="944.509" viewBox="0 0 137.651 944.509">
  <g id="secao-2" transform="translate(-3492.85 -1560.259)">
    <path id="Caminho_314" data-name="Caminho 314" d="M1487,2086.419v349.846h-.059a34.45,34.45,0,0,1-34.45,34.45v47.059A81.509,81.509,0,0,0,1534,2436.265V2086.419Z" transform="translate(2096.5 -13.005)" fill="#4bff41"/>
    <path id="Caminho_320" data-name="Caminho 320" d="M1534,1500.774a81.509,81.509,0,0,0-81.509-81.509v47.059a34.45,34.45,0,0,1,34.45,34.45H1487v437.491h47Z" transform="translate(2096.5 140.995)" fill="#211551"/>
    <rect id="Ret창ngulo_101" data-name="Ret창ngulo 101" width="29.143" height="47" transform="translate(3519.849 2457.768)" fill="#4bff41"/>
    <line id="Linha_8" data-name="Linha 8" x2="7.193" transform="translate(3516.35 2481.269)" fill="none" stroke="#4bff41" stroke-linecap="round" stroke-width="47"/>
    <rect id="Ret창ngulo_107" data-name="Ret창ngulo 107" width="29.143" height="47" transform="translate(3520.848 1560.259)" fill="#211551"/>
    <line id="Linha_14" data-name="Linha 14" x2="7.193" transform="translate(3517.35 1583.76)" fill="none" stroke="#211551" stroke-linecap="round" stroke-width="47"/>
  </g>
</svg>
