<svg xmlns="http://www.w3.org/2000/svg" width="320.92" height="925.149" viewBox="0 0 320.92 925.149">
  <g id="secao-6" transform="translate(-3309.581 -5233.996)">
    <path id="Caminho_316" data-name="Caminho 316" d="M1487,6024.361V6397.5h-.059a34.45,34.45,0,0,1-34.45,34.45v.059l-185.056-.029v47l185.056.029V6479A81.484,81.484,0,0,0,1534,6397.5v-373.14Z" transform="translate(2096.5 -319.865)" fill="#211551"/>
    <path id="Caminho_324" data-name="Caminho 324" d="M1534,5397.51A81.509,81.509,0,0,0,1452.491,5316h-164v47h164v.059a34.45,34.45,0,0,1,34.45,34.45H1487V5786.5h47Z" transform="translate(2096.5 -82.005)" fill="#05c3de"/>
    <rect id="Ret창ngulo_104" data-name="Ret창ngulo 104" width="29.143" height="47" transform="translate(3336.58 6112.145)" fill="#211551"/>
    <line id="Linha_11" data-name="Linha 11" x2="7.193" transform="translate(3333.081 6135.645)" fill="none" stroke="#211551" stroke-linecap="round" stroke-width="47"/>
    <rect id="Ret창ngulo_110" data-name="Ret창ngulo 110" width="32.143" height="47" transform="translate(3355.848 5233.996)" fill="#05c3de"/>
    <line id="Linha_17" data-name="Linha 17" x2="7.193" transform="translate(3352.35 5257.496)" fill="none" stroke="#05c3de" stroke-linecap="round" stroke-width="47"/>
  </g>
</svg>
