<svg xmlns="http://www.w3.org/2000/svg" width="416.651" height="1195" viewBox="0 0 416.651 1195">
  <g id="secao-5" transform="translate(-2096.5 -4085.996)">
    <path id="Caminho_315" data-name="Caminho 315" d="M250.188,5316H81.509v-.059a34.448,34.448,0,0,1-34.45-34.45H47V4725.453H0v556.039A81.523,81.523,0,0,0,81.509,5363H250.188Z" transform="translate(2096.5 -82.005)" fill="#211551"/>
    <path id="Caminho_317" data-name="Caminho 317" d="M360.509,4178h-279v.009A81.485,81.485,0,0,0,0,4259.51v475.982H47V4259.51h.059a34.45,34.45,0,0,1,34.45-34.45V4225h279Z" transform="translate(2096.5 -92.005)" fill="#4bff41"/>
    <rect id="Ret창ngulo_103" data-name="Ret창ngulo 103" width="31.143" height="47" transform="translate(2344.688 5233.996)" fill="#211551"/>
    <line id="Linha_10" data-name="Linha 10" x1="7.193" transform="translate(2372.138 5257.496)" fill="none" stroke="#211551" stroke-linecap="round" stroke-width="47"/>
    <rect id="Ret창ngulo_105" data-name="Ret창ngulo 105" width="29.143" height="47" transform="translate(2457.01 4085.996)" fill="#4bff41"/>
    <line id="Linha_12" data-name="Linha 12" x1="7.193" transform="translate(2482.458 4109.496)" fill="none" stroke="#4bff41" stroke-linecap="round" stroke-width="47"/>
  </g>
</svg>
