<svg xmlns="http://www.w3.org/2000/svg" width="223.83" height="42.308" viewBox="0 0 223.83 42.308">
  <g id="vidrelo-logo-negativa" transform="translate(0 -0.848)">
    <path id="Caminho_150" data-name="Caminho 150" d="M18.2.848H71.336a18.047,18.047,0,0,1,18.2,17.785v6.738a18.047,18.047,0,0,1-18.2,17.784H18.2A18.047,18.047,0,0,1,0,25.371V18.632A18.047,18.047,0,0,1,18.2.848ZM17.87,11.712H71.662a6.835,6.835,0,0,1,6.891,6.735v7.107a6.835,6.835,0,0,1-6.891,6.735H17.87a6.835,6.835,0,0,1-6.891-6.735V18.448A6.835,6.835,0,0,1,17.87,11.712Z" transform="translate(0)" fill="#50cfe8" fill-rule="evenodd"/>
    <path id="Caminho_151" data-name="Caminho 151" d="M54.48.848A17.816,17.816,0,0,1,72.443,18.4V25.6a17.969,17.969,0,0,1-35.928,0V18.4A17.816,17.816,0,0,1,54.48.848Zm0,10.865a6.976,6.976,0,0,1,7.034,6.875v6.827a7.036,7.036,0,0,1-14.068,0V18.587A6.976,6.976,0,0,1,54.48,11.712Z" transform="translate(-9.718)" fill="#50cfe8" fill-rule="evenodd"/>
    <path id="Caminho_152" data-name="Caminho 152" d="M53.29,43.134A17.789,17.789,0,0,1,36.516,25.616V18.424A17.789,17.789,0,0,1,53.29.906V11.831a6.948,6.948,0,0,0-5.845,6.776v6.827a6.949,6.949,0,0,0,5.845,6.776Z" transform="translate(-9.718 -0.016)" fill="#72ff2b" fill-rule="evenodd"/>
    <path id="Caminho_153" data-name="Caminho 153" d="M61,.848V11.713H87.9a6.835,6.835,0,0,1,6.891,6.735v7.107A6.835,6.835,0,0,1,87.9,32.29H61V43.155H87.57a18.047,18.047,0,0,0,18.2-17.784V18.632A18.047,18.047,0,0,0,87.57.848H61Z" transform="translate(-16.234)" fill="#72ff2b" fill-rule="evenodd"/>
    <path id="Caminho_154" data-name="Caminho 154" d="M54.982.848a18.034,18.034,0,0,1,16.6,10.865h-33.2A18.034,18.034,0,0,1,54.982.848Zm16.6,31.442a18.112,18.112,0,0,1-33.2,0h33.2Z" transform="translate(-10.215)" fill="#fff" fill-rule="evenodd"/>
    <path id="Caminho_155" data-name="Caminho 155" d="M166.331,19.951V36.5l2.344.578v2.563h-9.516l-.387-2.651,2.4-.572V22.214h-2.016l-.387-2.65,5.988-1.332,1.571,1.72ZM187.272,9.718V35.312c.356.9.9,1.328,1.841.79q.432.962.865,1.924c-1.933,2.263-5.009,2.822-7.235,0a6.91,6.91,0,0,1-9.595,0,12.073,12.073,0,0,1-3.276-8.8,12.022,12.022,0,0,1,3.276-8.473,7.655,7.655,0,0,1,8.969-1.7V11.608H180.1l-.387-2.65L185.7,7.625l1.571,1.72v.373Zm-7.811,12.51c-2.418,0-4.228,2.512-4.228,6.968s1.314,6.683,3.731,6.683a4.514,4.514,0,0,0,3.153-1.79V23.224A4.2,4.2,0,0,0,179.461,22.228ZM163.43,7.7a3.221,3.221,0,1,1-3.233,3.221A3.226,3.226,0,0,1,163.43,7.7Zm-7.287,10.851.864,1.4L156.9,20l-7.616,19.643h-5.818l-5.227-17.917h0L135.727,22l-.172-3.145,7.06-.185.374,1.282.009.031,4.226,14.485,4.8-12.379h-1.8l-.418-3.16,6.338-.373Zm48.7,21.087H192.316l-.387-2.651,2.4-.572V22.214h-2.017l-.387-2.65,5.787-.974,1.529,2.307,0,.12.042-.075a5.319,5.319,0,0,1,5.532-2.48,5.832,5.832,0,0,1,4.408,3.581l-5.192,2.865L202.8,22.92c-.583-.939-3.316,1.086-3.316,5.075v7.663l5.359,1.282v2.7Zm31.77-29.925V36.5l2.343.578v2.563h-9.516l-.387-2.651,2.4-.572V11.607h-2.016l-.387-2.65,5.988-1.332,1.571,1.72v.373ZM226.7,37.17l-.821-3.539c-3.316,3.895-10.181,3.061-10.587-2.5,2.127-.057,5.63.156,8.319-1.382,5.652-3.232,4.074-10.866-3.351-11.314a9.313,9.313,0,0,0-5.878,1.478,11.494,11.494,0,0,0-4.546,9.526,10.226,10.226,0,0,0,5.19,9.1c4.052,2.347,9.239,1.358,11.673-1.366Zm-11.46-9.661c5.724.785,7.632-2.615,6.094-4.38S215.777,22.97,215.238,27.509Zm35.074,12.345c-5.3,0-9.593-4.8-9.593-10.718s4.295-10.718,9.593-10.718,9.593,4.8,9.593,10.718S255.61,39.854,250.312,39.854Zm-4.347-10.718c0-2.682.8-6.7,4.347-6.7s4.347,4.018,4.347,6.7-.8,6.7-4.347,6.7S245.965,31.818,245.965,29.136Z" transform="translate(-36.075 -1.804)" fill="#fff" fill-rule="evenodd"/>
  </g>
</svg>
