<svg xmlns="http://www.w3.org/2000/svg" width="108.155" height="96.707" viewBox="0 0 108.155 96.707">
  <g id="melhor-exp-icon" transform="translate(2.833)">
    <path id="Caminho_179" data-name="Caminho 179" d="M27.783,62.591a20.13,20.13,0,1,0-20.13-20.13A20.13,20.13,0,0,0,27.783,62.591Z" transform="translate(1.185 13.166)" fill="none" stroke="#291868" stroke-linecap="round" stroke-linejoin="round" stroke-width="4.239"/>
    <path id="Caminho_180" data-name="Caminho 180" d="M3,61.642a32.221,32.221,0,0,1,57.94,0" transform="translate(-3 32.232)" fill="none" stroke="#291868" stroke-linecap="round" stroke-linejoin="round" stroke-width="4.239"/>
    <path id="Caminho_181" data-name="Caminho 181" d="M47.315,8.129a12.726,12.726,0,0,0-19.393,0L26.884,9.351a12.726,12.726,0,0,0,.336,16.864L55.148,56.537a2.121,2.121,0,0,0,3.12,0L86.2,26.215a12.726,12.726,0,0,0,.336-16.864L85.493,8.129a12.726,12.726,0,0,0-19.393,0l-7.645,8.994a2.293,2.293,0,0,1-3.495,0Z" transform="translate(15.76 -3.645)" fill="#291868" fill-rule="evenodd"/>
  </g>
</svg>
