<svg id="carrinho-icon" xmlns="http://www.w3.org/2000/svg" width="33.071" height="31.704" viewBox="0 0 33.071 31.704">
  <path id="Caminho_156" data-name="Caminho 156" d="M15,31.5A1.5,1.5,0,1,1,13.5,30,1.5,1.5,0,0,1,15,31.5Z" transform="translate(-1.025 -2.796)" fill="none" stroke="#fff" stroke-linecap="round" stroke-linejoin="round" stroke-width="3"/>
  <path id="Caminho_157" data-name="Caminho 157" d="M31.5,31.5A1.5,1.5,0,1,1,30,30,1.5,1.5,0,0,1,31.5,31.5Z" transform="translate(-2.929 -2.796)" fill="none" stroke="#fff" stroke-linecap="round" stroke-linejoin="round" stroke-width="3"/>
  <path id="Caminho_158" data-name="Caminho 158" d="M1.5,1.5H6.968l3.663,17.59A2.711,2.711,0,0,0,13.364,21.2H26.651a2.711,2.711,0,0,0,2.734-2.115L31.571,8.068H8.334" transform="translate(0 0)" fill="none" stroke="#fff" stroke-linecap="round" stroke-linejoin="round" stroke-width="3"/>
</svg>
