<svg id="digital-icon" xmlns="http://www.w3.org/2000/svg" width="112.34" height="98.295" viewBox="0 0 112.34 98.295">
  <path id="Caminho_173" data-name="Caminho 173" d="M90.908,33.5a47.744,47.744,0,0,1-65.371,44.37l2.191-5.514A41.81,41.81,0,0,0,84.975,33.5Z" transform="translate(13.004 17.055)" fill="#291868"/>
  <path id="Caminho_174" data-name="Caminho 174" d="M82.018,31.7A11.234,11.234,0,1,1,70.785,20.47,11.234,11.234,0,0,1,82.018,31.7Zm-17.555,0a6.321,6.321,0,1,0,6.321-6.321A6.321,6.321,0,0,0,64.463,31.7Z" transform="translate(30.322 10.423)" fill="#291868"/>
  <path id="Caminho_175" data-name="Caminho 175" d="M5.584,47.743A47.743,47.743,0,0,1,70.955,3.373L68.764,8.888A41.81,41.81,0,0,0,11.518,47.743Z" transform="translate(2.844 0)" fill="#291868"/>
  <path id="Caminho_176" data-name="Caminho 176" d="M0,41.008A11.234,11.234,0,1,1,11.233,52.242,11.234,11.234,0,0,1,0,41.008Zm17.555,0a6.321,6.321,0,1,0-6.321,6.321A6.321,6.321,0,0,0,17.554,41.008Z" transform="translate(0.001 15.16)" fill="#291868"/>
  <path id="Caminho_177" data-name="Caminho 177" d="M29.777,37.287A11.234,11.234,0,1,1,41.01,48.52,11.234,11.234,0,0,1,29.777,37.287Zm17.555,0a6.321,6.321,0,1,0-6.321,6.321A6.321,6.321,0,0,0,47.332,37.287Z" transform="translate(15.162 13.265)" fill="#291868"/>
  <path id="Caminho_178" data-name="Caminho 178" d="M18.61,42.972A28.084,28.084,0,1,1,46.694,71.056,28.084,28.084,0,0,1,18.61,42.972Zm50.286,0a22.2,22.2,0,1,0-22.2,22.2A22.2,22.2,0,0,0,68.9,42.972Z" transform="translate(9.476 7.58)" fill="#291868"/>
</svg>
