<svg id="transpartente-icon" xmlns="http://www.w3.org/2000/svg" width="91.279" height="98.701" viewBox="0 0 91.279 98.701">
  <path id="Caminho_182" data-name="Caminho 182" d="M0,37.1a37.1,37.1,0,1,1,37.1,37.1A37.1,37.1,0,0,1,0,37.1Zm66.423,0A29.326,29.326,0,1,0,37.1,66.423,29.326,29.326,0,0,0,66.423,37.1Z" transform="translate(0 0)" fill="#291868"/>
  <path id="Caminho_183" data-name="Caminho 183" d="M18.609,16.718a9.274,9.274,0,1,1,9.274,9.274A9.274,9.274,0,0,1,18.609,16.718Zm16.606,0a7.332,7.332,0,1,0-7.332,7.332A7.332,7.332,0,0,0,35.215,16.718Z" transform="translate(18.487 7.395)" fill="#291868"/>
  <rect id="Retângulo_17" data-name="Retângulo 17" width="48.225" height="7.419" rx="1.861" transform="translate(57.179 59.354) rotate(45)" fill="#291868"/>
</svg>
